{
  "asset": { "version": "2.0" },
  "scene": 0,
  "scenes": [{ "nodes": [0,1] }],
  "nodes": [{"mesh":0},{"mesh":1}],
  "meshes": [{"primitives":[{"attributes":{"POSITION":0,"TEXCOORD_0":1},"indices":2,"material":0}]},{"primitives":[{"attributes":{"POSITION":3,"TEXCOORD_0":4},"indices":5,"material":0}]}],
  "materials": [{
    "name" : "tree",
    "pbrMetallicRoughness": {
      "baseColorTexture": { "index": 0 },
      "metallicFactor": 0.0,
      "roughnessFactor": 1.0
    }
  }],
  "samplers": [{ "magFilter": 9728, "minFilter": 9728 }],
  "textures": [{ "source": 0, "sampler": 0 }],
  "images": [{ "uri": "tree.png" }],
  "accessors": [{"bufferView":0,"byteOffset":0,"componentType":5126,"count":84,"type":"VEC3","min":[0.5,0,-1.5],"max":[1.5,1.5,-0.5]},{"bufferView":1,"byteOffset":0,"componentType":5126,"count":84,"type":"VEC2"},{"bufferView":2,"byteOffset":0,"componentType":5123,"count":84,"type":"SCALAR"},{"bufferView":3,"byteOffset":0,"componentType":5126,"count":18,"type":"VEC3","min":[0,1.5,-2],"max":[2,2.75,-0]},{"bufferView":4,"byteOffset":0,"componentType":5126,"count":18,"type":"VEC2"},{"bufferView":5,"byteOffset":0,"componentType":5123,"count":18,"type":"SCALAR"}],
  "bufferViews": [{"buffer":0,"byteOffset":0,"byteLength":1008,"target":34962},{"buffer":0,"byteOffset":1008,"byteLength":672,"target":34962},{"buffer":0,"byteOffset":1680,"byteLength":168,"target":34963},{"buffer":0,"byteOffset":1848,"byteLength":216,"target":34962},{"buffer":0,"byteOffset":2064,"byteLength":144,"target":34962},{"buffer":0,"byteOffset":2208,"byteLength":36,"target":34963}],
  "buffers": [{ "uri": "tree.bin", "byteLength": 2244 }]
}