# Blender 4.2.0
# www.blender.org
mtllib curve_cylinder.mtl
o Cylinder
v 0.000000 -0.312869 -0.356205
v 0.000000 0.312869 -0.356205
v 0.125000 -0.333259 -0.329632
v 0.125000 0.333259 -0.329632
v 0.216506 -0.388964 -0.257036
v 0.216506 0.388964 -0.257036
v 0.250000 -0.465059 -0.157866
v 0.250000 0.465059 -0.157866
v 0.216506 -0.541155 -0.058697
v 0.216506 0.541155 -0.058697
v 0.125000 -0.596860 0.013900
v 0.125000 0.596860 0.013900
v 0.000000 -0.617250 0.040472
v 0.000000 0.617250 0.040472
v -0.125000 -0.596860 0.013900
v -0.125000 0.596860 0.013900
v -0.216506 -0.541155 -0.058697
v -0.216506 0.541155 -0.058697
v -0.250000 -0.465059 -0.157866
v -0.250000 0.465059 -0.157866
v -0.216506 -0.388964 -0.257036
v -0.216506 0.388964 -0.257036
v -0.125000 -0.333259 -0.329632
v -0.125000 0.333259 -0.329632
v 0.000000 -0.262250 -0.321945
v 0.000000 -0.207922 -0.293937
v 0.000000 -0.150652 -0.272576
v 0.000000 -0.091252 -0.258166
v 0.000000 -0.030562 -0.250909
v 0.000000 0.030562 -0.250909
v 0.000000 0.091252 -0.258166
v 0.000000 0.150652 -0.272576
v 0.000000 0.207922 -0.293937
v 0.000000 0.262250 -0.321945
v 0.125000 0.279341 -0.293140
v 0.125000 0.221472 -0.263306
v 0.125000 0.160470 -0.240554
v 0.125000 0.097199 -0.225204
v 0.125000 0.032553 -0.217475
v 0.125000 -0.032553 -0.217475
v 0.125000 -0.097199 -0.225204
v 0.125000 -0.160470 -0.240554
v 0.125000 -0.221472 -0.263306
v 0.125000 -0.279341 -0.293140
v 0.216506 0.326034 -0.214443
v 0.216506 0.258492 -0.179623
v 0.216506 0.187294 -0.153067
v 0.216506 0.113446 -0.135152
v 0.216506 0.037995 -0.126131
v 0.216506 -0.037995 -0.126131
v 0.216506 -0.113446 -0.135152
v 0.216506 -0.187294 -0.153067
v 0.216506 -0.258492 -0.179623
v 0.216506 -0.326034 -0.214443
v 0.250000 0.389818 -0.106941
v 0.250000 0.309062 -0.065309
v 0.250000 0.223935 -0.033558
v 0.250000 0.135641 -0.012138
v 0.250000 0.045428 -0.001352
v 0.250000 -0.045428 -0.001352
v 0.250000 -0.135641 -0.012138
v 0.250000 -0.223935 -0.033558
v 0.250000 -0.309062 -0.065309
v 0.250000 -0.389818 -0.106941
v 0.216506 0.453601 0.000561
v 0.216506 0.359632 0.049005
v 0.216506 0.260576 0.085951
v 0.216506 0.157835 0.110876
v 0.216506 0.052861 0.123427
v 0.216506 -0.052861 0.123427
v 0.216506 -0.157835 0.110876
v 0.216506 -0.260576 0.085951
v 0.216506 -0.359632 0.049005
v 0.216506 -0.453601 0.000561
v 0.125000 0.500294 0.079257
v 0.125000 0.396652 0.132689
v 0.125000 0.287400 0.173438
v 0.125000 0.174082 0.200928
v 0.125000 0.058302 0.214771
v 0.125000 -0.058302 0.214771
v 0.125000 -0.174082 0.200928
v 0.125000 -0.287400 0.173438
v 0.125000 -0.396652 0.132689
v 0.125000 -0.500294 0.079257
v 0.000000 0.517385 0.108062
v 0.000000 0.410202 0.163319
v 0.000000 0.297218 0.205460
v 0.000000 0.180029 0.233890
v 0.000000 0.060294 0.248206
v 0.000000 -0.060294 0.248206
v 0.000000 -0.180029 0.233890
v 0.000000 -0.297218 0.205460
v 0.000000 -0.410202 0.163319
v 0.000000 -0.517385 0.108062
v -0.125000 0.500294 0.079257
v -0.125000 0.396652 0.132689
v -0.125000 0.287400 0.173438
v -0.125000 0.174082 0.200928
v -0.125000 0.058302 0.214771
v -0.125000 -0.058302 0.214771
v -0.125000 -0.174082 0.200928
v -0.125000 -0.287400 0.173438
v -0.125000 -0.396652 0.132689
v -0.125000 -0.500294 0.079257
v -0.216506 0.453601 0.000561
v -0.216506 0.359632 0.049005
v -0.216506 0.260576 0.085951
v -0.216506 0.157835 0.110876
v -0.216506 0.052861 0.123427
v -0.216506 -0.052861 0.123427
v -0.216506 -0.157835 0.110876
v -0.216506 -0.260576 0.085951
v -0.216506 -0.359632 0.049005
v -0.216506 -0.453601 0.000561
v -0.250000 0.389818 -0.106941
v -0.250000 0.309062 -0.065309
v -0.250000 0.223935 -0.033558
v -0.250000 0.135641 -0.012138
v -0.250000 0.045428 -0.001352
v -0.250000 -0.045428 -0.001352
v -0.250000 -0.135641 -0.012138
v -0.250000 -0.223935 -0.033558
v -0.250000 -0.309062 -0.065309
v -0.250000 -0.389818 -0.106941
v -0.216506 0.326034 -0.214443
v -0.216506 0.258492 -0.179623
v -0.216506 0.187294 -0.153067
v -0.216506 0.113446 -0.135152
v -0.216506 0.037995 -0.126131
v -0.216506 -0.037995 -0.126131
v -0.216506 -0.113446 -0.135152
v -0.216506 -0.187294 -0.153067
v -0.216506 -0.258492 -0.179623
v -0.216506 -0.326034 -0.214443
v -0.125000 0.279341 -0.293140
v -0.125000 0.221472 -0.263306
v -0.125000 0.160470 -0.240554
v -0.125000 0.097199 -0.225204
v -0.125000 0.032553 -0.217475
v -0.125000 -0.032553 -0.217475
v -0.125000 -0.097199 -0.225204
v -0.125000 -0.160470 -0.240554
v -0.125000 -0.221472 -0.263306
v -0.125000 -0.279341 -0.293140
v 0.000000 0.233409 -0.306059
v 0.125000 0.248621 -0.276219
v 0.216506 0.290179 -0.194694
v 0.250000 0.346948 -0.083328
v 0.216506 0.403717 0.028037
v 0.125000 0.445275 0.109562
v 0.000000 0.460486 0.139402
v -0.125000 0.445275 0.109562
v -0.216506 0.403717 0.028037
v -0.250000 0.346948 -0.083328
v -0.216506 0.290179 -0.194694
v -0.125000 0.248621 -0.276219
v 0.055000 -0.321841 -0.344513
v 0.055000 0.321841 -0.344513
v 0.055000 -0.269770 -0.309271
v 0.055000 -0.213884 -0.280459
v 0.055000 -0.154972 -0.258486
v 0.055000 -0.093869 -0.243663
v 0.055000 -0.031438 -0.236198
v 0.055000 0.031438 -0.236198
v 0.055000 0.093869 -0.243663
v 0.055000 0.154972 -0.258486
v 0.055000 0.213884 -0.280459
v 0.055000 0.269770 -0.309271
v 0.055000 0.240102 -0.292930
vn 0.2584 -0.5415 -0.8000
vn 0.7065 -0.3967 -0.5861
vn 0.9658 -0.1453 -0.2147
vn 0.9658 0.1453 0.2147
vn 0.7065 0.3967 0.5861
vn 0.2584 0.5415 0.8000
vn -0.2584 0.5415 0.8000
vn -0.7065 0.3967 0.5861
vn -0.9658 0.1453 0.2147
vn -0.9658 -0.1453 -0.2147
vn -0.0000 0.7934 -0.6088
vn -0.7065 -0.3967 -0.5861
vn -0.2584 -0.5415 -0.8000
vn -0.0000 -0.7934 -0.6088
vn -0.2584 0.5415 -0.8000
vn -0.2584 0.4427 -0.8587
vn -0.2584 0.3376 -0.9051
vn -0.2584 0.2278 -0.9388
vn -0.2584 0.1147 -0.9592
vn -0.2584 -0.0000 -0.9660
vn -0.2584 -0.1147 -0.9592
vn -0.2584 -0.2278 -0.9388
vn -0.2584 -0.3376 -0.9051
vn -0.2587 -0.4660 -0.8461
vn -0.7065 0.3967 -0.5861
vn -0.7065 0.3243 -0.6291
vn -0.7065 0.2473 -0.6631
vn -0.7065 0.1669 -0.6878
vn -0.7065 0.0840 -0.7027
vn -0.7065 -0.0000 -0.7077
vn -0.7065 -0.0840 -0.7027
vn -0.7065 -0.1669 -0.6878
vn -0.7065 -0.2473 -0.6631
vn -0.7069 -0.3412 -0.6195
vn -0.9658 0.1453 -0.2147
vn -0.9658 0.1188 -0.2304
vn -0.9658 0.0906 -0.2429
vn -0.9658 0.0611 -0.2519
vn -0.9658 0.0308 -0.2574
vn -0.9658 -0.0000 -0.2592
vn -0.9658 -0.0308 -0.2574
vn -0.9658 -0.0611 -0.2519
vn -0.9658 -0.0906 -0.2429
vn -0.9659 -0.1249 -0.2268
vn -0.9658 -0.1453 0.2147
vn -0.9658 -0.1188 0.2304
vn -0.9658 -0.0906 0.2429
vn -0.9658 -0.0611 0.2519
vn -0.9658 -0.0308 0.2574
vn -0.9658 -0.0000 0.2592
vn -0.9658 0.0308 0.2574
vn -0.9658 0.0611 0.2519
vn -0.9658 0.0906 0.2429
vn -0.9659 0.1249 0.2268
vn -0.7065 -0.3967 0.5861
vn -0.7065 -0.3243 0.6291
vn -0.7065 -0.2473 0.6631
vn -0.7065 -0.1669 0.6878
vn -0.7065 -0.0840 0.7027
vn -0.7065 -0.0000 0.7077
vn -0.7065 0.0840 0.7027
vn -0.7065 0.1669 0.6878
vn -0.7065 0.2473 0.6631
vn -0.7069 0.3412 0.6195
vn -0.2584 -0.5415 0.8000
vn -0.2584 -0.4427 0.8587
vn -0.2584 -0.3376 0.9051
vn -0.2584 -0.2278 0.9388
vn -0.2584 -0.1147 0.9592
vn -0.2584 -0.0000 0.9660
vn -0.2584 0.1147 0.9592
vn -0.2584 0.2278 0.9388
vn -0.2584 0.3376 0.9051
vn -0.2587 0.4660 0.8461
vn 0.2584 -0.5415 0.8000
vn 0.2584 -0.4427 0.8587
vn 0.2584 -0.3376 0.9051
vn 0.2584 -0.2278 0.9388
vn 0.2584 -0.1147 0.9592
vn 0.2584 -0.0000 0.9660
vn 0.2584 0.1147 0.9592
vn 0.2584 0.2278 0.9388
vn 0.2584 0.3376 0.9051
vn 0.2587 0.4660 0.8461
vn 0.7065 -0.3967 0.5861
vn 0.7065 -0.3243 0.6291
vn 0.7065 -0.2473 0.6631
vn 0.7065 -0.1669 0.6878
vn 0.7065 -0.0840 0.7027
vn 0.7065 -0.0000 0.7077
vn 0.7065 0.0840 0.7027
vn 0.7065 0.1669 0.6878
vn 0.7065 0.2473 0.6631
vn 0.7069 0.3412 0.6195
vn 0.9658 -0.1453 0.2147
vn 0.9658 -0.1188 0.2304
vn 0.9658 -0.0906 0.2429
vn 0.9658 -0.0611 0.2519
vn 0.9658 -0.0308 0.2574
vn 0.9658 -0.0000 0.2592
vn 0.9658 0.0308 0.2574
vn 0.9658 0.0611 0.2519
vn 0.9658 0.0906 0.2429
vn 0.9659 0.1249 0.2268
vn 0.9658 0.1453 -0.2147
vn 0.9658 0.1188 -0.2304
vn 0.9658 0.0906 -0.2429
vn 0.9658 0.0611 -0.2519
vn 0.9658 0.0308 -0.2574
vn 0.9658 -0.0000 -0.2592
vn 0.9658 -0.0308 -0.2574
vn 0.9658 -0.0611 -0.2519
vn 0.9658 -0.0906 -0.2429
vn 0.9659 -0.1249 -0.2268
vn 0.7065 0.3967 -0.5861
vn 0.7065 0.3243 -0.6291
vn 0.7065 0.2473 -0.6631
vn 0.7065 0.1669 -0.6878
vn 0.7065 0.0840 -0.7027
vn 0.7065 -0.0000 -0.7077
vn 0.7065 -0.0840 -0.7027
vn 0.7065 -0.1669 -0.6878
vn 0.7065 -0.2473 -0.6631
vn 0.7069 -0.3412 -0.6195
vn 0.2584 0.5415 -0.8000
vn 0.2584 0.4427 -0.8587
vn 0.2584 0.3376 -0.9051
vn 0.2584 0.2278 -0.9388
vn 0.2584 0.1147 -0.9592
vn 0.2584 -0.0000 -0.9660
vn 0.2584 -0.1147 -0.9592
vn 0.2584 -0.2278 -0.9388
vn 0.2584 -0.3376 -0.9051
vn 0.2587 -0.4660 -0.8461
vn 0.2587 -0.4149 -0.8723
vn 0.7070 -0.3038 -0.6387
vn 0.9659 -0.1112 -0.2338
vn 0.9659 0.1112 0.2338
vn 0.7070 0.3038 0.6387
vn 0.2587 0.4149 0.8723
vn -0.2587 0.4149 0.8723
vn -0.7070 0.3038 0.6387
vn -0.9659 0.1112 0.2338
vn -0.9659 -0.1112 -0.2338
vn -0.7070 -0.3038 -0.6387
vn -0.2587 -0.4149 -0.8723
vt 0.963333 0.954545
vt 0.963333 1.000000
vt 0.916667 1.000000
vt 0.916667 0.954545
vt 0.833333 1.000000
vt 0.833333 0.954545
vt 0.750000 1.000000
vt 0.750000 0.954545
vt 0.666667 1.000000
vt 0.666667 0.954545
vt 0.583333 1.000000
vt 0.583333 0.954545
vt 0.500000 1.000000
vt 0.500000 0.954545
vt 0.416667 1.000000
vt 0.416667 0.954545
vt 0.333333 1.000000
vt 0.333333 0.954545
vt 0.250000 1.000000
vt 0.250000 0.954545
vt 0.166667 1.000000
vt 0.166667 0.954545
vt 0.370000 0.457846
vt 0.302800 0.475852
vt 0.250000 0.490000
vt 0.130000 0.457846
vt 0.042154 0.370000
vt 0.010000 0.250000
vt 0.042154 0.130000
vt 0.130000 0.042154
vt 0.250000 0.010000
vt 0.370000 0.042154
vt 0.457846 0.130000
vt 0.490000 0.250000
vt 0.457846 0.370000
vt 0.083333 1.000000
vt 0.083333 0.954545
vt 0.000000 1.000000
vt 0.000000 0.954545
vt 0.750000 0.490000
vt 0.802800 0.475852
vt 0.870000 0.457846
vt 0.957846 0.370000
vt 0.990000 0.250000
vt 0.957846 0.130000
vt 0.870000 0.042154
vt 0.750000 0.010000
vt 0.630000 0.042154
vt 0.542154 0.130000
vt 0.510000 0.250000
vt 0.542154 0.370000
vt 0.630000 0.457846
vt 0.083333 0.500000
vt 0.083333 0.545455
vt 0.000000 0.545455
vt 0.000000 0.500000
vt 0.083333 0.590909
vt 0.000000 0.590909
vt 0.083333 0.636364
vt 0.000000 0.636364
vt 0.083333 0.681818
vt 0.000000 0.681818
vt 0.083333 0.727273
vt 0.000000 0.727273
vt 0.083333 0.772727
vt 0.000000 0.772727
vt 0.083333 0.818182
vt 0.000000 0.818182
vt 0.083333 0.863636
vt 0.000000 0.863636
vt 0.083333 0.909091
vt 0.000000 0.909091
vt 0.083333 0.930070
vt 0.000000 0.930070
vt 0.166667 0.500000
vt 0.166667 0.545455
vt 0.166667 0.590909
vt 0.166667 0.636364
vt 0.166667 0.681818
vt 0.166667 0.727273
vt 0.166667 0.772727
vt 0.166667 0.818182
vt 0.166667 0.863636
vt 0.166667 0.909091
vt 0.166667 0.930070
vt 0.250000 0.500000
vt 0.250000 0.545455
vt 0.250000 0.590909
vt 0.250000 0.636364
vt 0.250000 0.681818
vt 0.250000 0.727273
vt 0.250000 0.772727
vt 0.250000 0.818182
vt 0.250000 0.863636
vt 0.250000 0.909091
vt 0.250000 0.930070
vt 0.333333 0.500000
vt 0.333333 0.545455
vt 0.333333 0.590909
vt 0.333333 0.636364
vt 0.333333 0.681818
vt 0.333333 0.727273
vt 0.333333 0.772727
vt 0.333333 0.818182
vt 0.333333 0.863636
vt 0.333333 0.909091
vt 0.333333 0.930070
vt 0.416667 0.500000
vt 0.416667 0.545455
vt 0.416667 0.590909
vt 0.416667 0.636364
vt 0.416667 0.681818
vt 0.416667 0.727273
vt 0.416667 0.772727
vt 0.416667 0.818182
vt 0.416667 0.863636
vt 0.416667 0.909091
vt 0.416667 0.930070
vt 0.500000 0.500000
vt 0.500000 0.545455
vt 0.500000 0.590909
vt 0.500000 0.636364
vt 0.500000 0.681818
vt 0.500000 0.727273
vt 0.500000 0.772727
vt 0.500000 0.818182
vt 0.500000 0.863636
vt 0.500000 0.909091
vt 0.500000 0.930070
vt 0.583333 0.500000
vt 0.583333 0.545455
vt 0.583333 0.590909
vt 0.583333 0.636364
vt 0.583333 0.681818
vt 0.583333 0.727273
vt 0.583333 0.772727
vt 0.583333 0.818182
vt 0.583333 0.863636
vt 0.583333 0.909091
vt 0.583333 0.930070
vt 0.666667 0.500000
vt 0.666667 0.545455
vt 0.666667 0.590909
vt 0.666667 0.636364
vt 0.666667 0.681818
vt 0.666667 0.727273
vt 0.666667 0.772727
vt 0.666667 0.818182
vt 0.666667 0.863636
vt 0.666667 0.909091
vt 0.666667 0.930070
vt 0.750000 0.500000
vt 0.750000 0.545455
vt 0.750000 0.590909
vt 0.750000 0.636364
vt 0.750000 0.681818
vt 0.750000 0.727273
vt 0.750000 0.772727
vt 0.750000 0.818182
vt 0.750000 0.863636
vt 0.750000 0.909091
vt 0.750000 0.930070
vt 0.833333 0.500000
vt 0.833333 0.545455
vt 0.833333 0.590909
vt 0.833333 0.636364
vt 0.833333 0.681818
vt 0.833333 0.727273
vt 0.833333 0.772727
vt 0.833333 0.818182
vt 0.833333 0.863636
vt 0.833333 0.909091
vt 0.833333 0.930070
vt 0.916667 0.500000
vt 0.916667 0.545455
vt 0.916667 0.590909
vt 0.916667 0.636364
vt 0.916667 0.681818
vt 0.916667 0.727273
vt 0.916667 0.772727
vt 0.916667 0.818182
vt 0.916667 0.863636
vt 0.916667 0.909091
vt 0.916667 0.930070
vt 0.963333 0.500000
vt 0.963333 0.545455
vt 0.963333 0.590909
vt 0.963333 0.636364
vt 0.963333 0.681818
vt 0.963333 0.727273
vt 0.963333 0.772727
vt 0.963333 0.818182
vt 0.963333 0.863636
vt 0.963333 0.909091
vt 0.963333 0.930070
vt 1.000000 0.909091
vt 1.000000 0.930070
vt 1.000000 0.954545
vt 1.000000 0.863636
vt 1.000000 0.818182
vt 1.000000 0.772727
vt 1.000000 0.727273
vt 1.000000 0.681818
vt 1.000000 0.636364
vt 1.000000 0.590909
vt 1.000000 0.545455
vt 1.000000 0.500000
vt 1.000000 1.000000
s 0
f 168/1/1 158/2/1 4/3/1 35/4/1
f 35/4/2 4/3/2 6/5/2 45/6/2
f 45/6/3 6/5/3 8/7/3 55/8/3
f 55/8/4 8/7/4 10/9/4 65/10/4
f 65/10/5 10/9/5 12/11/5 75/12/5
f 75/12/6 12/11/6 14/13/6 85/14/6
f 85/14/7 14/13/7 16/15/7 95/16/7
f 95/16/8 16/15/8 18/17/8 105/18/8
f 105/18/9 18/17/9 20/19/9 115/20/9
f 115/20/10 20/19/10 22/21/10 125/22/10
f 4/23/11 158/24/11 2/25/11 24/26/11 22/27/11 20/28/11 18/29/11 16/30/11 14/31/11 12/32/11 10/33/11 8/34/11 6/35/11
f 125/22/12 22/21/12 24/36/12 135/37/12
f 135/37/13 24/36/13 2/38/13 34/39/13
f 1/40/14 157/41/14 3/42/14 5/43/14 7/44/14 9/45/14 11/46/14 13/47/14 15/48/14 17/49/14 19/50/14 21/51/14 23/52/14
f 23/53/15 144/54/15 25/55/15 1/56/15
f 144/54/16 143/57/16 26/58/16 25/55/16
f 143/57/17 142/59/17 27/60/17 26/58/17
f 142/59/18 141/61/18 28/62/18 27/60/18
f 141/61/19 140/63/19 29/64/19 28/62/19
f 140/63/20 139/65/20 30/66/20 29/64/20
f 139/65/21 138/67/21 31/68/21 30/66/21
f 138/67/22 137/69/22 32/70/22 31/68/22
f 137/69/23 136/71/23 33/72/23 32/70/23
f 156/73/24 135/37/24 34/39/24 145/74/24
f 21/75/25 134/76/25 144/54/25 23/53/25
f 134/76/26 133/77/26 143/57/26 144/54/26
f 133/77/27 132/78/27 142/59/27 143/57/27
f 132/78/28 131/79/28 141/61/28 142/59/28
f 131/79/29 130/80/29 140/63/29 141/61/29
f 130/80/30 129/81/30 139/65/30 140/63/30
f 129/81/31 128/82/31 138/67/31 139/65/31
f 128/82/32 127/83/32 137/69/32 138/67/32
f 127/83/33 126/84/33 136/71/33 137/69/33
f 155/85/34 125/22/34 135/37/34 156/73/34
f 19/86/35 124/87/35 134/76/35 21/75/35
f 124/87/36 123/88/36 133/77/36 134/76/36
f 123/88/37 122/89/37 132/78/37 133/77/37
f 122/89/38 121/90/38 131/79/38 132/78/38
f 121/90/39 120/91/39 130/80/39 131/79/39
f 120/91/40 119/92/40 129/81/40 130/80/40
f 119/92/41 118/93/41 128/82/41 129/81/41
f 118/93/42 117/94/42 127/83/42 128/82/42
f 117/94/43 116/95/43 126/84/43 127/83/43
f 154/96/44 115/20/44 125/22/44 155/85/44
f 17/97/45 114/98/45 124/87/45 19/86/45
f 114/98/46 113/99/46 123/88/46 124/87/46
f 113/99/47 112/100/47 122/89/47 123/88/47
f 112/100/48 111/101/48 121/90/48 122/89/48
f 111/101/49 110/102/49 120/91/49 121/90/49
f 110/102/50 109/103/50 119/92/50 120/91/50
f 109/103/51 108/104/51 118/93/51 119/92/51
f 108/104/52 107/105/52 117/94/52 118/93/52
f 107/105/53 106/106/53 116/95/53 117/94/53
f 153/107/54 105/18/54 115/20/54 154/96/54
f 15/108/55 104/109/55 114/98/55 17/97/55
f 104/109/56 103/110/56 113/99/56 114/98/56
f 103/110/57 102/111/57 112/100/57 113/99/57
f 102/111/58 101/112/58 111/101/58 112/100/58
f 101/112/59 100/113/59 110/102/59 111/101/59
f 100/113/60 99/114/60 109/103/60 110/102/60
f 99/114/61 98/115/61 108/104/61 109/103/61
f 98/115/62 97/116/62 107/105/62 108/104/62
f 97/116/63 96/117/63 106/106/63 107/105/63
f 152/118/64 95/16/64 105/18/64 153/107/64
f 13/119/65 94/120/65 104/109/65 15/108/65
f 94/120/66 93/121/66 103/110/66 104/109/66
f 93/121/67 92/122/67 102/111/67 103/110/67
f 92/122/68 91/123/68 101/112/68 102/111/68
f 91/123/69 90/124/69 100/113/69 101/112/69
f 90/124/70 89/125/70 99/114/70 100/113/70
f 89/125/71 88/126/71 98/115/71 99/114/71
f 88/126/72 87/127/72 97/116/72 98/115/72
f 87/127/73 86/128/73 96/117/73 97/116/73
f 151/129/74 85/14/74 95/16/74 152/118/74
f 11/130/75 84/131/75 94/120/75 13/119/75
f 84/131/76 83/132/76 93/121/76 94/120/76
f 83/132/77 82/133/77 92/122/77 93/121/77
f 82/133/78 81/134/78 91/123/78 92/122/78
f 81/134/79 80/135/79 90/124/79 91/123/79
f 80/135/80 79/136/80 89/125/80 90/124/80
f 79/136/81 78/137/81 88/126/81 89/125/81
f 78/137/82 77/138/82 87/127/82 88/126/82
f 77/138/83 76/139/83 86/128/83 87/127/83
f 150/140/84 75/12/84 85/14/84 151/129/84
f 9/141/85 74/142/85 84/131/85 11/130/85
f 74/142/86 73/143/86 83/132/86 84/131/86
f 73/143/87 72/144/87 82/133/87 83/132/87
f 72/144/88 71/145/88 81/134/88 82/133/88
f 71/145/89 70/146/89 80/135/89 81/134/89
f 70/146/90 69/147/90 79/136/90 80/135/90
f 69/147/91 68/148/91 78/137/91 79/136/91
f 68/148/92 67/149/92 77/138/92 78/137/92
f 67/149/93 66/150/93 76/139/93 77/138/93
f 149/151/94 65/10/94 75/12/94 150/140/94
f 7/152/95 64/153/95 74/142/95 9/141/95
f 64/153/96 63/154/96 73/143/96 74/142/96
f 63/154/97 62/155/97 72/144/97 73/143/97
f 62/155/98 61/156/98 71/145/98 72/144/98
f 61/156/99 60/157/99 70/146/99 71/145/99
f 60/157/100 59/158/100 69/147/100 70/146/100
f 59/158/101 58/159/101 68/148/101 69/147/101
f 58/159/102 57/160/102 67/149/102 68/148/102
f 57/160/103 56/161/103 66/150/103 67/149/103
f 148/162/104 55/8/104 65/10/104 149/151/104
f 5/163/105 54/164/105 64/153/105 7/152/105
f 54/164/106 53/165/106 63/154/106 64/153/106
f 53/165/107 52/166/107 62/155/107 63/154/107
f 52/166/108 51/167/108 61/156/108 62/155/108
f 51/167/109 50/168/109 60/157/109 61/156/109
f 50/168/110 49/169/110 59/158/110 60/157/110
f 49/169/111 48/170/111 58/159/111 59/158/111
f 48/170/112 47/171/112 57/160/112 58/159/112
f 47/171/113 46/172/113 56/161/113 57/160/113
f 147/173/114 45/6/114 55/8/114 148/162/114
f 3/174/115 44/175/115 54/164/115 5/163/115
f 44/175/116 43/176/116 53/165/116 54/164/116
f 43/176/117 42/177/117 52/166/117 53/165/117
f 42/177/118 41/178/118 51/167/118 52/166/118
f 41/178/119 40/179/119 50/168/119 51/167/119
f 40/179/120 39/180/120 49/169/120 50/168/120
f 39/180/121 38/181/121 48/170/121 49/169/121
f 38/181/122 37/182/122 47/171/122 48/170/122
f 37/182/123 36/183/123 46/172/123 47/171/123
f 146/184/124 35/4/124 45/6/124 147/173/124
f 157/185/125 159/186/125 44/175/125 3/174/125
f 159/186/126 160/187/126 43/176/126 44/175/126
f 160/187/127 161/188/127 42/177/127 43/176/127
f 161/188/128 162/189/128 41/178/128 42/177/128
f 162/189/129 163/190/129 40/179/129 41/178/129
f 163/190/130 164/191/130 39/180/130 40/179/130
f 164/191/131 165/192/131 38/181/131 39/180/131
f 165/192/132 166/193/132 37/182/132 38/181/132
f 166/193/133 167/194/133 36/183/133 37/182/133
f 169/195/134 168/1/134 35/4/134 146/184/134
f 167/194/135 169/195/135 146/184/135 36/183/135
f 36/183/136 146/184/136 147/173/136 46/172/136
f 46/172/137 147/173/137 148/162/137 56/161/137
f 56/161/138 148/162/138 149/151/138 66/150/138
f 66/150/139 149/151/139 150/140/139 76/139/139
f 76/139/140 150/140/140 151/129/140 86/128/140
f 86/128/141 151/129/141 152/118/141 96/117/141
f 96/117/142 152/118/142 153/107/142 106/106/142
f 106/106/143 153/107/143 154/96/143 116/95/143
f 116/95/144 154/96/144 155/85/144 126/84/144
f 126/84/145 155/85/145 156/73/145 136/71/145
f 136/71/146 156/73/146 145/74/146 33/72/146
f 33/196/135 145/197/135 169/195/135 167/194/135
f 145/197/134 34/198/134 168/1/134 169/195/134
f 32/199/133 33/196/133 167/194/133 166/193/133
f 31/200/132 32/199/132 166/193/132 165/192/132
f 30/201/131 31/200/131 165/192/131 164/191/131
f 29/202/130 30/201/130 164/191/130 163/190/130
f 28/203/129 29/202/129 163/190/129 162/189/129
f 27/204/128 28/203/128 162/189/128 161/188/128
f 26/205/127 27/204/127 161/188/127 160/187/127
f 25/206/126 26/205/126 160/187/126 159/186/126
f 1/207/125 25/206/125 159/186/125 157/185/125
f 34/198/1 2/208/1 158/2/1 168/1/1
