{
  "asset": { "version": "2.0" },
  "scene": 0,
  "scenes": [{ "nodes": [0,1,2] }],
  "nodes": [{"mesh":0},{"mesh":1},{"mesh":2}],
  "meshes": [{"primitives":[{"attributes":{"POSITION":0,"TEXCOORD_0":1},"indices":2,"material":0}]},{"primitives":[{"attributes":{"POSITION":3,"TEXCOORD_0":4},"indices":5,"material":0}]},{"primitives":[{"attributes":{"POSITION":6,"TEXCOORD_0":7},"indices":8,"material":0}]}],
  "materials": [{
    "name" : "sample_scene",
    "pbrMetallicRoughness": {
      "baseColorTexture": { "index": 0 },
      "metallicFactor": 0.0,
      "roughnessFactor": 1.0
    }
  }],
  "samplers": [{ "magFilter": 9728, "minFilter": 9728 }],
  "textures": [{ "source": 0, "sampler": 0 }],
  "images": [{ "uri": "sample_scene.png" }],
  "accessors": [{"bufferView":0,"byteOffset":0,"componentType":5126,"count":12,"type":"VEC3","min":[0,0,-3.5],"max":[3.5,0,-0]},{"bufferView":1,"byteOffset":0,"componentType":5126,"count":12,"type":"VEC2"},{"bufferView":2,"byteOffset":0,"componentType":5123,"count":12,"type":"SCALAR"},{"bufferView":3,"byteOffset":0,"componentType":5126,"count":12,"type":"VEC3","min":[-6.123234e-17,0,-3.5],"max":[6.123234e-17,2,-0]},{"bufferView":4,"byteOffset":0,"componentType":5126,"count":12,"type":"VEC2"},{"bufferView":5,"byteOffset":0,"componentType":5123,"count":12,"type":"SCALAR"},{"bufferView":6,"byteOffset":0,"componentType":5126,"count":12,"type":"VEC3","min":[-2.22044605e-16,0,-6.123234e-17],"max":[3.5,2,6.123234e-17]},{"bufferView":7,"byteOffset":0,"componentType":5126,"count":12,"type":"VEC2"},{"bufferView":8,"byteOffset":0,"componentType":5123,"count":12,"type":"SCALAR"}],
  "bufferViews": [{"buffer":0,"byteOffset":0,"byteLength":144,"target":34962},{"buffer":0,"byteOffset":144,"byteLength":96,"target":34962},{"buffer":0,"byteOffset":240,"byteLength":24,"target":34963},{"buffer":0,"byteOffset":264,"byteLength":144,"target":34962},{"buffer":0,"byteOffset":408,"byteLength":96,"target":34962},{"buffer":0,"byteOffset":504,"byteLength":24,"target":34963},{"buffer":0,"byteOffset":528,"byteLength":144,"target":34962},{"buffer":0,"byteOffset":672,"byteLength":96,"target":34962},{"buffer":0,"byteOffset":768,"byteLength":24,"target":34963}],
  "buffers": [{ "uri": "sample_scene.bin", "byteLength": 792 }]
}