{
  "accessors": [
    {
      "bufferView": 2,
      "componentType": 5126,
      "count": 1230,
      "max": [
        66.25618743896484,
        149.6498260498047,
        60.48723602294922
      ],
      "min": [
        -56.08567428588867,
        -142.64463806152344,
        -69.98738861083984
      ],
      "type": "VEC3"
    },
    {
      "bufferView": 2,
      "byteOffset": 14760,
      "componentType": 5126,
      "count": 1230,
      "max": [
        0.9992114901542664,
        1.0,
        1.0
      ],
      "min": [
        -1.0,
        -1.0,
        -1.0
      ],
      "type": "VEC3"
    },
    {
      "bufferView": 1,
      "componentType": 5126,
      "count": 1230,
      "max": [
        0.9744277596473694,
        0.9605316519737244
      ],
      "min": [
        0.19322842359542847,
        0.037760376930236816
      ],
      "type": "VEC2"
    },
    {
      "bufferView": 0,
      "componentType": 5125,
      "count": 1455,
      "type": "SCALAR"
    }
  ],
  "asset": {
    "extras": {
      "author": "lisa_shcheglova (https://sketchfab.com/multilisaveta)",
      "license": "CC-BY-4.0 (http://creativecommons.org/licenses/by/4.0/)",
      "source": "https://sketchfab.com/3d-models/solder-4-28849d69259045eeb2dff6ca8ce2c004",
      "title": "SOLDER 4"
    },
    "generator": "Sketchfab-12.66.0",
    "version": "2.0"
  },
  "bufferViews": [
    {
      "buffer": 0,
      "byteLength": 5820,
      "name": "floatBufferViews",
      "target": 34963
    },
    {
      "buffer": 0,
      "byteLength": 9840,
      "byteOffset": 5820,
      "byteStride": 8,
      "name": "floatBufferViews",
      "target": 34962
    },
    {
      "buffer": 0,
      "byteLength": 29520,
      "byteOffset": 15660,
      "byteStride": 12,
      "name": "floatBufferViews",
      "target": 34962
    }
  ],
  "buffers": [
    {
      "byteLength": 45180,
      "uri": "scene.bin"
    }
  ],
  "images": [
    {
      "uri": "textures/ROBIN_HOOD_ATLAS_baseColor.png"
    }
  ],
  "materials": [
    {
      "doubleSided": true,
      "name": "ROBIN_HOOD_ATLAS",
      "pbrMetallicRoughness": {
        "baseColorTexture": {
          "index": 0
        },
        "metallicFactor": 0.0,
        "roughnessFactor": 0.6
      }
    }
  ],
  "meshes": [
    {
      "name": "SOLDER_4_1_ROBIN_HOOD_ATLAS_0",
      "primitives": [
        {
          "attributes": {
            "NORMAL": 1,
            "POSITION": 0,
            "TEXCOORD_0": 2
          },
          "indices": 3,
          "material": 0,
          "mode": 4
        }
      ]
    }
  ],
  "nodes": [
    {
      "children": [
        1
      ],
      "matrix": [
        1.0,
        0.0,
        0.0,
        0.0,
        0.0,
        2.220446049250313e-16,
        -1.0,
        0.0,
        0.0,
        1.0,
        2.220446049250313e-16,
        0.0,
        0.0,
        0.0,
        0.0,
        1.0
      ],
      "name": "Sketchfab_model"
    },
    {
      "children": [
        2
      ],
      "matrix": [
        1.0,
        0.0,
        0.0,
        0.0,
        0.0,
        0.0,
        1.0,
        0.0,
        0.0,
        -1.0,
        0.0,
        0.0,
        0.0,
        0.0,
        0.0,
        1.0
      ],
      "name": "fdcaf56f029f4dd9abbaf30e9ed713e9.fbx"
    },
    {
      "children": [
        3
      ],
      "name": "RootNode"
    },
    {
      "children": [
        4
      ],
      "matrix": [
        0.9983551544816436,
        3.3320008974157994e-08,
        -0.057332238050964136,
        0.0,
        -3.74663048571085e-08,
        0.9999999999999968,
        -7.12455982563608e-08,
        0.0,
        0.05733223805096158,
        7.327643736232393e-08,
        0.9983551544816416,
        0.0,
        383.48651123046875,
        167.05126953125,
        -2000.1375732421875,
        1.0
      ],
      "name": "SOLDER_4_1"
    },
    {
      "mesh": 0,
      "name": "SOLDER_4_1_ROBIN_HOOD_ATLAS_0"
    }
  ],
  "samplers": [
    {
      "magFilter": 9729,
      "minFilter": 9987,
      "wrapS": 10497,
      "wrapT": 10497
    }
  ],
  "scene": 0,
  "scenes": [
    {
      "name": "Sketchfab_Scene",
      "nodes": [
        0
      ]
    }
  ],
  "textures": [
    {
      "sampler": 0,
      "source": 0
    }
  ]
}
